<?xml version="1.0" standalone="no"?>
<!DOCTYPE svg PUBLIC "-//W3C//DTD SVG 20010904//EN"
 "http://www.w3.org/TR/2001/REC-SVG-20010904/DTD/svg10.dtd">
<svg version="1.0" xmlns="http://www.w3.org/2000/svg"
 width="1461.000000pt" height="458.000000pt" viewBox="0 0 1461.000000 458.000000"
 preserveAspectRatio="xMidYMid meet">

<g transform="translate(0.000000,458.000000) scale(0.100000,-0.100000)"
fill="#000000" stroke="none">
<path d="M761 3395 c-29 -27 -58 -67 -71 -98 -21 -49 -22 -60 -15 -203 6 -134
5 -157 -11 -189 -21 -45 -63 -65 -134 -65 -28 0 -65 -7 -82 -16 -17 -9 -51
-22 -77 -30 -25 -7 -61 -23 -78 -34 -28 -17 -33 -25 -33 -60 0 -36 3 -41 39
-60 22 -11 52 -36 68 -56 34 -45 70 -61 154 -69 72 -7 165 -31 173 -44 20 -31
8 -170 -18 -220 -10 -18 -11 -33 -3 -58 9 -28 7 -40 -11 -72 -14 -24 -24 -63
-27 -102 -18 -263 -19 -245 10 -297 18 -30 30 -71 35 -114 9 -78 32 -116 81
-132 33 -11 35 -14 49 -86 13 -64 18 -75 37 -78 13 -2 37 -19 55 -39 72 -79
64 -75 131 -69 34 3 100 8 147 11 303 21 444 91 485 242 9 32 32 110 51 173
20 63 38 147 41 187 l6 72 -34 20 c-23 14 -51 21 -84 21 -53 -1 -73 -9 -126
-53 -19 -16 -50 -38 -69 -51 -19 -12 -41 -35 -49 -51 -12 -26 -12 -35 2 -76
10 -26 17 -56 17 -67 0 -51 -146 -110 -244 -98 -83 9 -110 46 -163 221 -46
150 -51 174 -53 295 -1 58 -5 135 -9 173 -9 89 -5 195 9 232 21 54 62 97 119
124 53 25 66 26 261 31 256 6 280 15 280 105 0 31 -3 35 -39 45 -22 6 -59 19
-81 29 -32 14 -69 19 -154 20 -61 1 -124 4 -141 6 -16 2 -59 6 -95 10 -86 8
-130 22 -130 43 0 9 -14 37 -31 62 -27 39 -30 50 -23 85 9 51 9 133 -2 262 -8
93 -11 104 -38 132 -41 43 -68 40 -125 -14z"/>
<path d="M6536 3410 c-86 -34 -118 -82 -97 -149 14 -48 39 -65 133 -90 83 -22
124 -59 154 -137 16 -42 16 -47 -1 -84 -14 -31 -15 -43 -6 -54 7 -8 11 -36 10
-63 -2 -26 0 -82 5 -123 5 -49 3 -99 -5 -145 -7 -38 -12 -88 -12 -110 4 -95
14 -522 16 -660 2 -135 0 -153 -18 -185 -23 -39 -75 -69 -170 -97 -68 -20 -98
-55 -110 -124 -9 -54 15 -88 81 -112 43 -15 73 -17 239 -11 244 7 251 7 307 1
60 -6 115 6 141 31 17 18 18 27 11 93 l-9 73 -84 28 c-87 29 -141 67 -141 100
0 9 -12 48 -26 85 -20 54 -24 79 -19 118 3 28 1 65 -4 84 -8 24 -7 40 2 55 6
11 14 75 17 141 l5 120 43 23 c33 19 66 26 150 32 59 4 125 14 148 23 30 11
77 15 185 13 125 -1 148 -4 179 -21 48 -29 92 -102 90 -151 0 -22 -3 -93 -5
-159 -2 -66 -4 -177 -5 -246 0 -123 0 -126 -30 -165 -16 -21 -30 -45 -30 -52
0 -10 -5 -10 -22 -1 -32 17 -131 5 -168 -21 -38 -27 -47 -62 -29 -114 15 -45
66 -86 106 -86 13 0 35 -7 48 -16 23 -15 30 -14 117 14 77 25 116 31 223 36
143 6 228 24 259 56 19 19 20 23 6 47 -23 40 -58 61 -142 84 -42 11 -85 29
-96 40 -34 31 -55 123 -47 207 4 47 2 89 -6 121 -10 42 -10 54 3 81 16 34 15
80 -4 150 -14 47 -15 215 -6 745 3 175 8 277 15 291 12 21 45 38 145 74 72 26
102 61 94 109 -12 73 -80 105 -219 103 -51 0 -179 -1 -286 -2 -209 -1 -254 -9
-270 -52 -15 -40 -5 -91 23 -115 22 -19 47 -26 166 -49 45 -8 91 -43 106 -81
12 -28 14 -57 9 -132 -6 -87 -5 -101 16 -146 18 -40 23 -66 22 -130 -1 -115
-17 -152 -78 -187 -90 -51 -93 -51 -180 -38 -43 7 -156 13 -250 14 -162 1
-172 2 -214 26 -80 45 -86 62 -83 213 3 96 -1 155 -14 217 -21 104 -15 143 30
202 45 58 119 98 199 107 4 1 7 19 7 42 0 33 -6 47 -34 75 -21 21 -45 35 -62
36 -54 2 -129 -3 -164 -12 -27 -7 -50 -5 -98 10 -83 26 -199 26 -266 0z"/>
<path d="M2045 3398 c-27 -5 -81 -12 -118 -16 -76 -8 -90 -20 -81 -67 9 -43
28 -76 64 -110 28 -27 39 -30 102 -32 47 -2 76 -7 88 -18 21 -19 40 -80 40
-129 0 -30 5 -38 25 -46 35 -13 39 -31 21 -87 -10 -30 -16 -80 -15 -130 0 -45
-5 -97 -12 -116 -11 -31 -10 -39 10 -73 14 -24 19 -40 12 -42 -14 -5 -14 -35
0 -49 8 -8 8 -13 0 -17 -14 -9 -14 -49 0 -97 9 -30 9 -56 -2 -116 -16 -90 -15
-177 2 -280 11 -68 9 -180 -8 -373 -6 -71 -8 -77 -45 -109 -37 -33 -41 -34
-84 -24 -80 18 -143 -34 -152 -125 -5 -61 19 -92 71 -92 18 0 56 -8 85 -18 40
-15 63 -17 100 -11 26 5 70 12 99 15 l52 7 -15 35 c-31 74 16 88 48 15 25 -58
30 -62 77 -56 45 5 87 21 129 49 24 17 42 21 67 17 47 -8 57 18 23 55 -42 45
-62 82 -51 93 7 7 17 1 32 -19 18 -26 26 -29 54 -25 40 6 44 10 31 31 -19 32
-114 72 -164 71 -38 -2 -56 4 -92 29 -69 48 -71 52 -47 106 30 70 35 142 14
220 -20 74 -16 212 8 317 17 68 22 76 143 206 146 158 223 189 454 184 54 -2
56 -3 102 -56 35 -41 49 -68 58 -109 6 -30 18 -60 26 -66 19 -16 18 -53 -2
-92 -18 -36 -15 -102 10 -208 18 -75 22 -335 6 -418 -14 -75 -36 -121 -62
-131 -13 -4 -65 -11 -116 -14 -51 -4 -102 -12 -113 -17 -25 -14 -25 -52 0 -75
20 -17 20 -17 -1 -46 -29 -39 -14 -74 38 -88 41 -11 56 -6 115 40 45 35 53 36
67 4 16 -34 51 -40 152 -27 48 7 149 12 224 12 l137 0 15 35 c39 93 5 150
-115 190 -82 27 -121 58 -141 109 -6 18 -9 97 -8 210 2 147 0 187 -13 216 -14
31 -14 41 -2 80 13 41 17 117 12 210 -1 19 2 52 6 72 11 53 -28 128 -116 222
-58 62 -79 77 -122 90 -29 9 -72 31 -96 51 -24 19 -51 35 -60 36 -71 5 -95 4
-163 -7 -131 -21 -176 -40 -245 -106 -34 -32 -83 -68 -108 -79 -42 -18 -49
-19 -69 -6 -13 9 -30 38 -40 69 -20 64 -31 192 -18 233 7 23 4 43 -11 84 l-21
53 23 18 c23 17 23 17 7 68 -13 39 -15 67 -10 126 5 62 4 76 -7 76 -8 0 -38
18 -68 40 -50 38 -57 40 -120 39 -36 -1 -88 -6 -116 -11z"/>
<path d="M9012 3373 c-12 -2 -37 -23 -55 -45 -17 -22 -41 -51 -52 -63 -23 -24
-47 -151 -38 -198 16 -79 217 -160 317 -127 87 28 156 136 156 243 0 54 -2 60
-42 100 -58 58 -128 90 -203 93 -33 1 -70 0 -83 -3z"/>
<path d="M4455 2825 c-72 -16 -116 -31 -255 -88 -94 -38 -105 -45 -108 -70 -2
-19 -13 -32 -35 -43 -43 -23 -61 -46 -112 -149 -51 -100 -76 -201 -64 -255 6
-24 2 -51 -12 -92 -23 -69 -24 -115 -3 -214 53 -260 177 -455 344 -543 36 -19
82 -48 102 -64 27 -21 61 -34 130 -49 112 -24 154 -25 300 -2 92 14 127 24
187 56 41 22 96 48 122 57 65 25 182 122 203 168 17 38 20 61 17 120 -1 28 -5
33 -36 39 -20 3 -70 1 -112 -5 -74 -11 -78 -13 -142 -74 -141 -133 -200 -171
-241 -155 -14 5 -70 12 -125 14 -103 6 -174 23 -235 57 -100 55 -195 149 -240
237 -22 43 -40 134 -30 150 4 7 38 21 76 32 56 16 117 22 334 29 325 11 415
11 460 -1 19 -5 65 -12 102 -15 60 -6 67 -5 77 13 6 11 31 30 55 42 41 19 46
25 52 66 3 25 3 73 -1 107 -3 34 -7 83 -8 108 -2 35 -8 51 -29 70 -23 21 -67
126 -68 162 -1 32 -175 177 -236 197 -21 7 -59 24 -84 39 -95 57 -143 71 -237
70 -48 0 -115 -7 -148 -14z m245 -243 c51 -18 186 -81 253 -118 21 -12 31 -13
41 -5 18 15 26 -6 26 -66 0 -25 7 -72 16 -105 14 -56 14 -62 -2 -79 -29 -32
-84 -39 -301 -39 -114 0 -262 -1 -328 -3 -184 -3 -305 39 -305 106 0 13 13 54
30 90 28 61 32 66 79 82 27 9 69 33 93 54 54 48 80 62 143 77 31 7 49 16 47
24 -4 19 138 6 208 -18z"/>
<path d="M12545 2829 c-65 -12 -145 -39 -275 -92 -91 -37 -106 -46 -110 -69
-3 -16 -19 -36 -40 -50 -44 -30 -88 -95 -131 -195 -28 -66 -34 -92 -36 -168
-1 -49 -10 -115 -18 -145 -20 -67 -14 -139 20 -267 63 -237 169 -389 332 -477
37 -20 86 -49 108 -66 27 -20 57 -31 90 -35 28 -3 70 -12 95 -19 50 -14 63
-14 229 10 91 13 128 24 180 51 36 19 91 45 122 57 70 29 180 115 211 164 26
43 31 148 7 163 -19 12 -70 11 -148 -2 -61 -9 -68 -13 -150 -91 -47 -44 -108
-95 -134 -113 -47 -32 -49 -32 -100 -20 -29 6 -86 13 -127 14 -141 4 -254 55
-365 166 -72 72 -117 155 -123 230 -4 52 -4 53 29 64 87 27 142 34 389 43 343
14 380 14 472 -6 99 -21 147 -21 155 -1 3 9 27 27 53 40 26 13 50 31 54 40 10
28 7 170 -5 204 -8 23 -8 39 -1 56 10 21 7 27 -24 50 -19 14 -34 34 -34 43 0
9 -6 28 -13 42 -8 14 -17 40 -20 58 -9 44 -39 82 -100 127 -29 22 -63 49 -77
61 -14 12 -43 27 -65 34 -22 7 -65 28 -96 46 -31 19 -76 41 -99 49 -47 17
-175 18 -255 4z m245 -255 c41 -14 117 -49 169 -76 66 -34 97 -46 106 -38 19
16 25 1 25 -60 0 -31 7 -80 16 -109 32 -108 13 -116 -266 -117 -118 -1 -260
-5 -316 -9 -118 -9 -213 4 -291 40 -75 34 -79 57 -27 170 23 49 29 55 75 70
27 9 70 34 95 56 57 49 77 60 139 75 31 7 49 16 47 24 -5 22 143 5 228 -26z"/>
<path d="M11361 2771 c-10 -10 -23 -27 -29 -37 -10 -18 -13 -18 -79 5 -73 26
-149 30 -208 11 -44 -15 -56 -31 -61 -82 -2 -24 -5 -59 -6 -78 l-3 -34 70 -19
c98 -25 100 -27 97 -150 -4 -142 -24 -229 -68 -296 -20 -30 -39 -72 -42 -95
-3 -23 -16 -61 -29 -85 -19 -36 -22 -53 -17 -97 6 -50 5 -54 -18 -63 -14 -5
-39 -32 -57 -59 -33 -52 -47 -62 -86 -62 -18 0 -24 7 -29 36 -4 19 -27 86 -51
147 -36 95 -52 155 -54 213 -1 7 -13 15 -28 19 -24 6 -26 8 -10 16 24 14 22
23 -18 88 -19 32 -37 77 -41 102 -4 24 -15 55 -26 68 -18 24 -22 84 -9 145 6
30 12 34 98 56 47 12 65 36 77 102 10 53 -6 76 -72 106 -60 27 -73 28 -537 34
-89 2 -128 -12 -165 -59 -31 -39 -25 -137 9 -164 36 -29 98 -43 193 -44 l87 0
40 -75 c46 -87 108 -264 141 -400 16 -67 34 -113 61 -155 29 -46 41 -77 49
-135 7 -41 25 -104 40 -140 19 -43 30 -90 33 -140 6 -77 19 -100 59 -100 11 0
18 -7 18 -20 0 -27 37 -100 55 -106 28 -11 52 -11 105 2 30 7 71 13 91 14 40
0 58 19 103 108 43 84 66 149 97 274 20 78 39 132 59 162 40 59 56 100 64 165
4 30 16 72 28 94 14 29 18 51 14 78 -5 31 0 47 28 96 19 32 49 94 66 138 54
140 48 135 187 153 45 6 100 20 121 31 69 35 118 113 95 150 -17 28 -111 78
-169 90 -32 6 -102 11 -156 11 -83 0 -101 -3 -117 -19z m78 -35 c15 -16 19
-26 11 -31 -13 -8 -50 22 -50 42 0 20 14 16 39 -11z"/>
<path d="M8670 2740 c-128 -11 -169 -22 -199 -54 -26 -28 -42 -92 -30 -124 11
-30 34 -39 145 -57 136 -22 224 -21 316 5 133 37 185 29 235 -36 31 -41 35
-89 18 -205 -5 -38 -3 -74 5 -109 10 -42 10 -54 0 -60 -10 -6 -11 -28 -4 -97
11 -109 9 -437 -3 -478 -16 -53 -61 -69 -198 -73 -156 -3 -199 -3 -320 0 -85
3 -107 0 -147 -18 -77 -37 -74 -64 20 -171 61 -69 93 -87 161 -86 87 2 234 50
228 75 -3 16 109 29 141 17 36 -14 120 -17 176 -6 28 5 111 34 186 65 117 48
144 55 204 56 l70 1 26 -39 c34 -49 47 -56 128 -67 36 -5 74 -16 83 -25 38
-35 115 -10 145 47 30 59 11 139 -34 139 -10 0 -55 25 -102 55 -46 30 -100 58
-120 62 -19 3 -71 1 -115 -6 -143 -23 -202 -25 -229 -8 -39 26 -47 92 -46 394
0 174 -4 273 -10 273 -6 0 -10 14 -10 31 0 21 -9 39 -32 60 -30 27 -32 31 -19
52 62 97 59 202 -9 297 -34 48 -101 73 -220 81 -210 15 -337 17 -440 9z"/>
<path d="M13891 2046 c-68 -12 -101 -30 -101 -57 0 -4 -13 -10 -30 -14 -24 -5
-30 -12 -30 -32 0 -21 -4 -24 -21 -20 -26 7 -35 -16 -20 -49 10 -22 8 -28 -19
-50 -27 -24 -30 -31 -30 -87 0 -100 10 -137 37 -150 21 -9 23 -15 18 -49 -13
-72 56 -167 157 -219 35 -18 52 -20 107 -16 37 4 85 10 107 15 27 6 53 5 75
-2 30 -10 39 -8 72 13 21 14 40 35 43 48 4 15 20 29 40 38 53 22 43 44 -26 55
-53 8 -50 32 9 60 61 28 107 74 115 116 4 17 2 61 -5 98 l-11 66 -34 0 c-20 0
-51 11 -73 26 -32 21 -43 24 -60 15 -42 -23 -42 -6 1 38 32 33 38 34 96 16 19
-6 22 -4 22 18 0 49 -51 78 -160 92 -105 13 -126 18 -147 31 -26 16 -32 16
-132 0z m149 -407 c-10 -17 -29 -23 -107 -32 -30 -3 -33 -1 -33 22 0 26 2 26
75 27 69 1 74 0 65 -17z m120 -43 c0 -13 -45 -28 -54 -18 -7 7 38 41 46 35 5
-2 8 -10 8 -17z m-371 -56 c14 0 51 -41 51 -56 0 -33 -73 9 -83 47 -4 15 -2
19 10 15 8 -3 18 -6 22 -6z"/>
</g>
</svg>
